<svg xmlns="http://www.w3.org/2000/svg" xmlns:xlink="http://www.w3.org/1999/xlink" width="100.21" height="32.284" viewBox="0 0 100.21 32.284"><defs><style>.a{fill:none;}.b{clip-path:url(#a);}.c{fill:#37474f;}.d{fill:#2979ff;}.e{fill:#ff9100;}</style><clipPath id="a"><rect class="a" width="100.21" height="32.284"/></clipPath></defs><g class="b"><path class="c" d="M382.236,88.268a5.806,5.806,0,0,0-2.05,2.056,5.666,5.666,0,0,0,0,5.689,5.819,5.819,0,0,0,2.05,2.05,5.456,5.456,0,0,0,2.847.766h7.1v1.418h-7.1a6.786,6.786,0,0,1-3.556-.961,7.351,7.351,0,0,1-2.565-2.564,7.052,7.052,0,0,1,0-7.107,7.339,7.339,0,0,1,2.565-2.57,6.786,6.786,0,0,1,3.556-.961h7.1V87.5h-7.1a5.456,5.456,0,0,0-2.847.766" transform="translate(-338.217 -77.024)"/><path class="c" d="M545.582,86.084V87.5H532.836v4.975h6.188V93.9h-7.606V86.084ZM532.836,98.829h12.745v1.418H531.418V95.92h1.418Z" transform="translate(-475.486 -77.024)"/><path class="c" d="M660.7,88.3a5.775,5.775,0,0,0-2.015,2.04,5.661,5.661,0,0,0,.01,5.668,5.82,5.82,0,0,0,2.05,2.051,5.457,5.457,0,0,0,2.847.766h1.531a5.437,5.437,0,0,0,2.837-.766,5.862,5.862,0,0,0,2.056-2.051,5.644,5.644,0,0,0,.016-5.668,5.775,5.775,0,0,0-2.015-2.04,5.647,5.647,0,0,0-2.821-.8V86.084a6.973,6.973,0,0,1,3.531,1,7.265,7.265,0,0,1,2.523,2.554,7.078,7.078,0,0,1-.01,7.087,7.3,7.3,0,0,1-2.564,2.565,6.794,6.794,0,0,1-3.551.961H663.6a6.794,6.794,0,0,1-3.551-.961,7.337,7.337,0,0,1-2.57-2.565,7.062,7.062,0,0,1-.016-7.087,7.251,7.251,0,0,1,2.529-2.554,6.983,6.983,0,0,1,3.525-1V87.5a5.63,5.63,0,0,0-2.811.8" transform="translate(-587.418 -77.024)"/><path class="c" d="M817.551,98.829h10.268a2.477,2.477,0,0,0,0-4.954h-6.373a3.729,3.729,0,0,1-1.953-.529,4.045,4.045,0,0,1-1.413-1.413,3.867,3.867,0,0,1,0-3.906,4.045,4.045,0,0,1,1.413-1.413,3.729,3.729,0,0,1,1.953-.529h10.268V87.5H821.447a2.477,2.477,0,1,0,0,4.954h6.373a3.73,3.73,0,0,1,1.953.529,4.046,4.046,0,0,1,1.413,1.413,3.867,3.867,0,0,1,0,3.906,4.045,4.045,0,0,1-1.413,1.413,3.729,3.729,0,0,1-1.953.529H817.551Z" transform="translate(-731.504 -77.024)"/><path class="d" d="M19.84,5.085c-1.545-.8-3.623-1.994-5.533-3.045L3.058,8.585l11.265,6.543c2.1-1.244,4.161-2.461,6.219-3.68Q23.469,9.713,26.4,7.978a3.862,3.862,0,0,1,.755-.383.982.982,0,0,1,1.341.795,5.3,5.3,0,0,1,.041.943c.007,4.57-.006,9.141.032,13.711a1.97,1.97,0,0,1-1.182,1.862Q22.149,27.937,16.931,31c-.544.318-1.1.612-1.631.957a1.746,1.746,0,0,1-2.027.009c-2.957-1.746-5.932-3.462-8.9-5.188-1.09-.634-2.166-1.291-3.275-1.888A1.822,1.822,0,0,1,.014,23.076C.049,21.469,0,19.861,0,18.254c0-.331,0,.141,0-.929,1.257-.015,2.007.5,2.017,1.594.013,1.383,0,2.767,0,4.172L14.3,30.212l12.186-7.079V10.27c-1,.577-1.9,1.077-2.778,1.6-2.759,1.647-5.524,3.286-8.262,4.968a1.9,1.9,0,0,1-2.191.035C9.3,14.524,5.33,12.2,1.366,9.87c-.109-.064-.211-.138-.316-.209C-.011,8.94-.04,8.142,1.067,7.474c2.373-1.433,4.781-2.809,7.176-4.2,1.688-.983,3.388-1.945,5.065-2.946A1.74,1.74,0,0,1,15.18.233q2.888,1.612,5.769,3.238c.19.107,1.188.675,1.32.759a1.982,1.982,0,0,1-2.43.855" transform="translate(0 0)"/><path class="e" d="M75.8,169.026l-.044-2.394,5.362,2.965.044,2.394Z" transform="translate(-67.786 -149.094)"/><path class="e" d="M90.813,216.957l-.044-2.394,3.706,2.124.044,2.394Z" transform="translate(-81.216 -191.98)"/></g></svg>